<?xml version="1.0" encoding="UTF-8"?>
<!DOCTYPE svg PUBLIC "-//W3C//DTD SVG 1.1//EN" "http://www.w3.org/Graphics/SVG/1.1/DTD/svg11.dtd">
<svg xmlns="http://www.w3.org/2000/svg" version="1.1" width="512px" height="512px" style="shape-rendering:geometricPrecision; text-rendering:geometricPrecision; image-rendering:optimizeQuality; fill-rule:evenodd; clip-rule:evenodd" xmlns:xlink="http://www.w3.org/1999/xlink">
<g><path style="opacity:0.967" fill="#fff" d="M 301.5,26.5 C 314.987,25.6505 322.32,31.9838 323.5,45.5C 322.799,53.1063 320.965,60.4397 318,67.5C 313.333,79.5 308.667,91.5 304,103.5C 303.441,107.905 304.275,112.071 306.5,116C 304.772,122.469 303.105,128.969 301.5,135.5C 322.489,144.316 340.156,157.482 354.5,175C 355.5,175.667 356.5,175.667 357.5,175C 362.833,171.667 368.167,168.333 373.5,165C 376.811,165.215 380.144,165.215 383.5,165C 394.686,155.904 405.686,146.571 416.5,137C 421.328,133.419 426.328,130.085 431.5,127C 443.238,122.303 452.071,125.47 458,136.5C 460.11,146.511 456.943,154.345 448.5,160C 431.406,168.547 414.073,176.547 396.5,184C 394.13,187.108 392.13,190.441 390.5,194C 384.509,197.663 378.509,201.33 372.5,205C 381.628,226.27 384.961,248.437 382.5,271.5C 389.608,272.527 396.608,274.027 403.5,276C 405.871,278.706 408.537,281.039 411.5,283C 427.844,284.565 444.177,286.232 460.5,288C 474.535,287.82 482.868,294.487 485.5,308C 484.049,319.451 477.549,325.284 466,325.5C 461.401,325.226 456.901,324.392 452.5,323C 437.5,317.333 422.5,311.667 407.5,306C 405.5,305.333 403.5,305.333 401.5,306C 399.983,307.508 398.149,308.342 396,308.5C 389.022,306.835 382.022,305.169 375,303.5C 365.491,323.989 351.991,341.489 334.5,356C 338.488,362.159 342.322,368.326 346,374.5C 346.333,378.5 346.667,382.5 347,386.5C 360.293,401.102 372.627,416.435 384,432.5C 388.49,442.179 386.99,450.679 379.5,458C 369.263,463.219 360.429,461.386 353,452.5C 343.547,434.591 334.88,416.258 327,397.5C 323.681,396.116 320.515,394.45 317.5,392.5C 313.599,386.078 309.432,379.745 305,373.5C 284.329,381.69 262.996,385.023 241,383.5C 239.915,389.618 238.082,395.451 235.5,401C 236.554,402.388 236.72,403.888 236,405.5C 233.961,407.874 231.628,409.874 229,411.5C 227.13,427.804 225.464,444.138 224,460.5C 223.717,469.024 220.883,476.524 215.5,483C 203.671,490.673 194.171,488.506 187,476.5C 185.258,467.262 186.258,458.262 190,449.5C 195.361,435.278 200.861,421.111 206.5,407C 204.921,404.18 203.921,401.18 203.5,398C 204.38,390.616 206.046,383.116 208.5,375.5C 187.777,366.958 170.277,353.958 156,336.5C 149.522,340.008 143.355,343.842 137.5,348C 133.5,348.333 129.5,348.667 125.5,349C 110.075,362.428 94.0754,375.095 77.5,387C 68.0459,390.378 59.8792,388.545 53,381.5C 47.9706,370.258 50.4706,361.091 60.5,354C 77.4253,345.241 94.7587,337.241 112.5,330C 114.829,326.371 117.163,322.704 119.5,319C 125.506,315.908 131.339,312.408 137,308.5C 134.044,298.684 131.378,288.684 129,278.5C 127.187,266.494 126.687,254.494 127.5,242.5C 121.501,242.273 116.001,240.606 111,237.5C 109.274,238.576 107.441,238.743 105.5,238C 103.23,233.395 99.5637,230.728 94.5,230C 74.982,229.044 55.6487,226.711 36.5,223C 24.3466,216.868 21.1799,207.701 27,195.5C 31.5171,190.437 37.1838,188.104 44,188.5C 48.6532,188.495 53.1532,189.329 57.5,191C 73.1716,196.836 88.8383,202.67 104.5,208.5C 107.411,207.21 110.411,206.21 113.5,205.5C 120.666,206.963 127.833,208.63 135,210.5C 143.362,188.982 156.196,170.648 173.5,155.5C 169.529,150.03 166.029,144.364 163,138.5C 162.785,135.144 162.785,131.811 163,128.5C 152.667,116.167 142.333,103.833 132,91.5C 128.127,86.2943 125.127,80.6276 123,74.5C 121.083,63.2071 125.583,56.0405 136.5,53C 143.84,51.8754 150.007,54.042 155,59.5C 159.842,67.1807 164.175,75.1807 168,83.5C 172.278,94.3322 176.944,104.999 182,115.5C 185.333,117.5 188.667,119.5 192,121.5C 195.265,126.515 198.431,131.681 201.5,137C 213.819,133.015 226.486,130.015 239.5,128C 249.494,127.5 259.494,127.334 269.5,127.5C 270.061,122.252 271.395,117.252 273.5,112.5C 273.392,111.558 273.059,110.725 272.5,110C 275.748,106.427 278.581,102.593 281,98.5C 282.339,80.0879 284.339,61.7545 287,43.5C 288.6,34.9062 293.434,29.2396 301.5,26.5 Z M 248.5,170.5 C 254.888,170.312 261.222,170.812 267.5,172C 263.212,189.101 259.045,206.267 255,223.5C 251.902,224.302 248.735,224.969 245.5,225.5C 243.912,224.99 242.745,223.99 242,222.5C 233.484,208.656 224.984,194.823 216.5,181C 221.05,177.894 226.05,175.561 231.5,174C 237.229,172.432 242.896,171.265 248.5,170.5 Z M 281.5,175.5 C 298.524,180.852 312.191,190.852 322.5,205.5C 307.751,214.958 292.918,224.292 278,233.5C 274.785,231.329 271.952,228.829 269.5,226C 273.431,209.112 277.431,192.278 281.5,175.5 Z M 202.5,188.5 C 204.451,189.716 205.951,191.382 207,193.5C 214.749,206.667 222.749,219.667 231,232.5C 231.667,233.5 231.667,234.5 231,235.5C 229.13,237.405 227.63,239.572 226.5,242C 209.203,238.94 192.036,235.106 175,230.5C 179.471,213.51 188.638,199.51 202.5,188.5 Z M 329.5,218.5 C 331.64,220.7 333.14,223.367 334,226.5C 338.555,240.294 339.555,254.294 337,268.5C 320.543,264.428 304.043,260.428 287.5,256.5C 285.945,252.869 285.612,249.203 286.5,245.5C 301.066,236.725 315.399,227.725 329.5,218.5 Z M 170.5,244.5 C 187.203,248.884 204.036,252.884 221,256.5C 222.326,256.755 223.326,257.422 224,258.5C 224.339,261.036 224.839,263.536 225.5,266C 210.867,275.989 195.867,285.489 180.5,294.5C 176.199,287.767 173.365,280.434 172,272.5C 170.684,263.218 170.184,253.884 170.5,244.5 Z M 282.5,270.5 C 299.82,274.663 317.153,278.83 334.5,283C 328.482,299.017 318.649,312.184 305,322.5C 296,308.167 287,293.833 278,279.5C 277.333,278.5 277.333,277.5 278,276.5C 280.102,274.905 281.602,272.905 282.5,270.5 Z M 233.5,278.5 C 236.416,280.445 239.083,282.612 241.5,285C 237.407,301.87 233.241,318.704 229,335.5C 212.903,329.899 199.403,320.566 188.5,307.5C 203.735,298.058 218.735,288.392 233.5,278.5 Z M 260.5,285.5 C 262.144,285.286 263.644,285.62 265,286.5C 274.167,301 283.333,315.5 292.5,330C 277.004,338.165 260.671,340.832 243.5,338C 247.943,320.956 251.943,303.789 255.5,286.5C 257.415,286.784 259.081,286.451 260.5,285.5 Z"/></g>
</svg>
